#!OML:ASF F:\VICON\USERDATA\INSTALL\rory3\rory3.ASF
:FULLY-SPECIFIED
:DEGREES
312
root 0.582288 17.9656 27.5739 -2.72365 -3.42088 -5.70863
lowerback 10.0407 0.242693 4.43253
upperback 1.07081 0.933064 2.55389
thorax -4.49007 0.400644 0.0398772
lowerneck -14.376 -2.24091 -2.36592
upperneck 18.6511 -2.7825 1.13014
head 8.20772 -1.37266 0.455597
rclavicle 4.48508e-015 1.39149e-015
rhumerus -27.3446 -11.4615 -81.902
rradius 27.1092
rwrist 3.03856
rhand -17.5191 17.3051
rfingers 7.12502
rthumb 8.73445 -12.4942
lclavicle 4.48508e-015 1.39149e-015
lhumerus -31.6313 -3.1032 84.8924
lradius 30.665
lwrist 7.36662
lhand -28.235 22.682
lfingers 7.12502
lthumb -1.6129 52.6556
rfemur -7.05239 7.60336 33.4505
rtibia 31.1861
rfoot -16.4675 -8.17957
rtoes 9.79877
lfemur -25.9531 4.05631 -13.6005
ltibia 66.711
lfoot -4.56923 -7.60741
ltoes -10.061
313
root 0.588693 17.9547 27.7612 -2.66469 -3.40746 -5.68522
lowerback 10.0373 0.257033 4.58296
upperback 1.02848 0.965805 2.45426
thorax -4.52724 0.412149 -0.152712
lowerneck -14.1756 -2.21094 -2.25065
upperneck 18.4798 -2.74524 1.00981
head 8.11017 -1.35998 0.403511
rclavicle 1.5294e-014 2.00773e-014
rhumerus -27.1113 -10.8651 -82.1852
rradius 27.661
rwrist 2.61723
rhand -17.5258 17.9452
rfingers 7.12502
rthumb 8.72792 -11.8543
lclavicle 1.5294e-014 2.00773e-014
lhumerus -32.1613 -2.89627 84.8259
lradius 30.743
lwrist 6.83518
lhand -27.9366 24.1874
lfingers 7.12502
lthumb -1.32464 54.163
rfemur -6.32664 7.38581 33.4299
rtibia 31.0551
rfoot -17.1433 -8.15925
rtoes 9.81762
lfemur -26.9327 3.79503 -13.7303
ltibia 65.0467
lfoot -4.8446 -6.92413
ltoes -7.67263
314
root 0.590024 17.936 27.9377 -2.66441 -3.53779 -5.9073
lowerback 10.1649 0.289218 4.86744
upperback 0.964465 1.05324 2.47677
thorax -4.65816 0.446826 -0.301491
lowerneck -14.0253 -2.18876 -2.1786
upperneck 18.5563 -2.70142 0.846166
head 8.1046 -1.3513 0.343435
rclavicle 1.80149e-015 8.15017e-015
rhumerus -26.71 -10.5616 -82.3209
rradius 27.8282
rwrist 2.5345
rhand -17.2059 20.7271
rfingers 7.12502
rthumb 9.03667 -9.05936
lclavicle 1.80149e-015 8.15017e-015
lhumerus -32.6644 -2.89417 84.8942
lradius 30.5874
lwrist 6.7202
lhand -28.0317 24.4037
lfingers 7.12502
lthumb -1.41657 54.3788
rfemur -5.54697 7.44993 33.7464
rtibia 30.8248
rfoot -17.6571 -8.40184
rtoes 9.4069
lfemur -27.4613 3.80713 -13.5002
ltibia 63.4147
lfoot -5.57513 -6.07178
ltoes -9.41564
315
root 0.5881 17.9171 28.1094 -2.62463 -3.74917 -5.98546
lowerback 10.2602 0.427221 4.93767
upperback 0.948957 1.25327 2.50566
thorax -4.7189 0.54289 -0.339379
lowerneck -14.1973 -2.23507 -2.22577
upperneck 18.7732 -2.73695 0.773463
head 8.20842 -1.37802 0.320243
rclavicle 1.22004e-014 4.37326e-015
rhumerus -26.3506 -9.76571 -82.4766
rradius 28.3586
rwrist 1.45536
rhand -17.0278 22.5376
rfingers 7.12502
rthumb 9.20851 -7.24137
lclavicle 1.22004e-014 4.37326e-015
lhumerus -33.0744 -3.23495 85.2309
lradius 30.4218
lwrist 7.20135
lhand -28.6679 22.8098
lfingers 7.12502
lthumb -2.03097 52.7798
rfemur -4.87485 7.55433 33.9097
rtibia 30.6434
rfoot -17.9893 -8.33015
rtoes 9.48627
lfemur -27.9944 3.79689 -13.4063
ltibia 61.6049
lfoot -5.87144 -5.18397
ltoes -10.5273
316
root 0.586009 17.9086 28.2925 -2.61969 -3.96334 -6.01828
lowerback 10.2284 0.548573 4.93719
upperback 1.08867 1.40566 2.52889
thorax -4.54886 0.623281 -0.335087
lowerneck -14.439 -2.23437 -2.39462
upperneck 18.7693 -2.73223 0.972683
head 8.25606 -1.36631 0.412489
rclavicle 7.25564e-015 -9.14409e-015
rhumerus -25.9016 -9.02955 -82.682
rradius 29.0279
rwrist 0.598415
rhand -17.5618 23.2251
rfingers 7.12502
rthumb 8.69318 -6.57591
lclavicle 7.25564e-015 -9.14409e-015
lhumerus -33.2908 -3.29768 85.4582
lradius 30.3137
lwrist 7.52894
lhand -29.5053 20.8888
lfingers 7.12502
lthumb -2.83972 50.8496
rfemur -4.08024 7.66751 34.0254
rtibia 30.446
rfoot -18.196 -8.31436
rtoes 9.24013
lfemur -28.6541 3.64732 -13.3238
ltibia 59.5458
lfoot -5.67348 -4.48022
ltoes -8.53417
